<svg xmlns="http://www.w3.org/2000/svg" xmlns:xlink="http://www.w3.org/1999/xlink"><symbol id="1" viewBox="0 0 261 271">
<path d="M37.2135 60.6368L24.2858 48.4397L28.5582 43.9114C30.0381 42.3428 31.4625 41.4379 32.8314 41.1966C34.1944 40.9497 35.4559 41.3736 36.6161 42.4682C37.2495 43.0658 37.6553 43.7563 37.8335 44.5398C38.0058 45.3177 37.9307 46.1029 37.6084 46.8952C38.3996 46.3886 39.2255 46.1832 40.0861 46.2791C40.9522 46.3691 41.7493 46.7575 42.4774 47.4444C43.7204 48.6172 44.2874 49.9018 44.1783 51.2981C44.0693 52.6945 43.3281 54.1322 41.9549 55.6114L37.2135 60.6368ZM34.0974 52.662L37.5868 55.9542L39.7397 53.6724C40.3317 53.0449 40.6445 52.417 40.678 51.7885C40.7112 51.1485 40.4644 50.58 39.9376 50.083C38.7538 48.966 37.5749 49.0118 36.4011 50.2203L34.0974 52.662ZM32.2151 50.8861L34.0748 48.9149C35.3189 47.5489 35.417 46.3717 34.3693 45.3832C33.7833 44.8303 33.2011 44.6054 32.6227 44.7086C32.0439 44.8003 31.4082 45.2131 30.7157 45.9471L28.9565 47.8116L32.2151 50.8861Z"/>
<path d="M53.8764 44.571C53.5477 44.4325 53.2036 44.206 52.8441 43.8915C52.8016 45.1702 52.2567 46.2489 51.2094 47.1277C50.2182 47.9595 49.1547 48.3632 48.0188 48.339C46.8892 48.3095 45.9582 47.8584 45.2259 46.9856C44.3261 45.9134 44.0315 44.7583 44.3419 43.5204C44.6586 42.2773 45.5655 41.0223 47.0627 39.7553L48.3064 38.7117L47.8199 38.132C47.4275 37.6644 46.9921 37.3924 46.5136 37.3159C46.0413 37.2341 45.5464 37.4103 45.029 37.8445C44.5739 38.2264 44.307 38.6363 44.2283 39.0742C44.1558 39.5069 44.2791 39.9133 44.5982 40.2936L41.8957 42.5613C41.404 41.9753 41.1297 41.2812 41.0728 40.4791C41.0158 39.677 41.2001 38.8584 41.6255 38.0234C42.0457 37.1821 42.6672 36.4162 43.4901 35.7257C44.7369 34.6795 45.9891 34.1652 47.2468 34.1828C48.5056 34.1889 49.611 34.7592 50.563 35.8938L54.2431 40.2794C55.055 41.2342 55.7984 41.848 56.4735 42.1208L56.6069 42.2798L53.8764 44.571ZM50.0644 44.5668C50.4633 44.232 50.7579 43.8361 50.9481 43.3791C51.133 42.9158 51.181 42.4666 51.0919 42.0313L49.6325 40.292L48.6226 41.1395C47.2698 42.2746 46.9421 43.3464 47.6395 44.3547L47.7635 44.5215C48.046 44.8582 48.3972 45.0362 48.8172 45.0556C49.2372 45.075 49.6529 44.9121 50.0644 44.5668Z"/>
<path d="M60.1584 23.9132L67.4921 34.8981L64.5581 36.8569L58.8104 28.2477L56.2215 29.9761L58.3026 33.489C59.394 35.3729 59.9175 36.9266 59.8732 38.1499C59.8289 39.3733 59.2246 40.3883 58.0605 41.1948L57.0656 41.859L55.4423 39.4936L55.7875 39.2191C56.2883 38.826 56.4662 38.2571 56.3213 37.5124C56.1763 36.7677 55.6666 35.6744 54.7922 34.2327L51.8842 29.4372L60.1584 23.9132Z"/>
<path d="M73.0835 31.8539L69.9838 33.5638L63.6041 21.9987L66.7038 20.2888L73.0835 31.8539ZM61.7715 19.1061C61.516 18.6429 61.4589 18.1772 61.6002 17.7089C61.7487 17.2366 62.0901 16.8531 62.6245 16.5583C63.1518 16.2674 63.6548 16.1851 64.1334 16.3115C64.6121 16.4378 64.9791 16.7326 65.2346 17.1957C65.4941 17.666 65.546 18.1393 65.3904 18.6154C65.242 19.0877 64.9077 19.4673 64.3875 19.7542C63.8673 20.0411 63.3643 20.1234 62.8786 20.001C62.4 19.8747 62.0309 19.5764 61.7715 19.1061Z"/>
<path d="M77.9384 19.1544C77.7466 18.732 77.4578 18.4699 77.0719 18.3681C76.6901 18.2554 76.2435 18.3152 75.7323 18.5474C75.2062 18.7863 74.8269 19.0926 74.5944 19.4663C74.3659 19.8292 74.3425 20.2108 74.5242 20.6109L71.312 22.0695C70.8174 20.9802 70.8673 19.8895 71.4618 18.7973C72.0562 17.7051 73.0574 16.8394 74.4653 16.2001C76.0139 15.4968 77.3671 15.2488 78.5248 15.456C79.6899 15.6599 80.5265 16.3212 81.0345 17.4401C81.2768 17.9736 81.3375 18.5404 81.2167 19.1405C81.1 19.7297 80.8095 20.2907 80.3453 20.8232C81.9348 20.6824 83.0425 21.3011 83.6683 22.6793C84.1696 23.7834 84.0958 24.8805 83.4468 25.9707C82.8019 27.0501 81.6939 27.9464 80.123 28.6597C78.6633 29.3226 77.3081 29.5268 76.0575 29.2724C74.8069 29.0181 73.9192 28.3129 73.3943 27.157L76.6064 25.6983C76.7915 26.1059 77.1228 26.3532 77.6003 26.4403C78.0777 26.5273 78.6092 26.4379 79.1946 26.1721C79.7651 25.913 80.1491 25.5778 80.3466 25.1664C80.5441 24.7549 80.5453 24.3343 80.3501 23.9045C80.1112 23.3784 79.7894 23.0732 79.3847 22.9889C78.9766 22.8971 78.4687 22.9892 77.8611 23.2651L76.1161 24.0575L75.1672 21.9679L77.0234 21.1251C78.0103 20.6412 78.3153 19.9843 77.9384 19.1544Z"/>
<path d="M93.3075 23.2941C93.0519 23.0453 92.814 22.709 92.5938 22.2851C92.0882 23.4603 91.1877 24.2663 89.8921 24.703C88.6659 25.1163 87.5284 25.1047 86.4795 24.6682C85.4384 24.2291 84.7358 23.4697 84.3719 22.3901C83.9248 21.0636 84.0713 19.8806 84.8116 18.841C85.5595 17.7988 86.8614 16.9606 88.7173 16.3264L90.2558 15.8078L90.0141 15.0906C89.8191 14.5122 89.5127 14.1002 89.095 13.8546C88.685 13.6064 88.1599 13.5901 87.5199 13.8059C86.9569 13.9956 86.559 14.2801 86.3261 14.6591C86.1009 15.0356 86.0676 15.4591 86.2261 15.9295L82.8831 17.0564C82.6388 16.3315 82.6363 15.5852 82.8756 14.8175C83.1149 14.0498 83.5848 13.3546 84.2852 12.7321C84.9831 12.1018 85.841 11.6151 86.8589 11.2719C88.4013 10.752 89.7549 10.7294 90.9197 11.2042C92.0896 11.6686 92.9111 12.6026 93.3842 14.0061L95.213 19.4313C95.621 20.6163 96.0897 21.4588 96.6189 21.9588L96.6852 22.1555L93.3075 23.2941ZM89.7591 21.9009C90.2527 21.7346 90.6713 21.4732 91.0149 21.1169C91.3559 20.7529 91.5643 20.352 91.6401 19.9143L90.9148 17.7627L89.6655 18.1838C87.9921 18.7479 87.2963 19.6266 87.5783 20.8197L87.633 21.0202C87.7734 21.4367 88.0356 21.7305 88.4196 21.9016C88.8036 22.0727 89.2501 22.0725 89.7591 21.9009Z"/>
</symbol><symbol id="2" viewBox="0 0 261 276">
<path d="M29.5474 48.523L32.0509 45.8503L41.0314 54.2619C41.857 55.0351 42.4151 55.9036 42.7057 56.8671C42.996 57.8191 43.0018 58.789 42.7232 59.7769C42.4446 60.7648 41.9131 61.6775 41.1287 62.515C39.8436 63.887 38.4947 64.6307 37.0822 64.746C35.6636 64.8557 34.3159 64.3125 33.0389 63.1164L35.559 60.4258C36.1946 61.0211 36.7889 61.327 37.3422 61.3434C37.8955 61.3598 38.4419 61.08 38.9815 60.5039C39.46 59.9931 39.6659 59.4221 39.5991 58.7909C39.5324 58.1598 39.1754 57.541 38.528 56.9346L29.5474 48.523Z"/>
<path d="M47.5235 55.5395L36.1483 41.883L40.9319 37.8985C42.5889 36.5183 44.1114 35.7903 45.4993 35.7145C46.882 35.6325 48.0838 36.2043 49.1046 37.4299C49.6619 38.099 49.9822 38.8331 50.0654 39.6323C50.1433 40.4253 49.9749 41.1958 49.56 41.9438C50.4062 41.5355 51.2507 41.4305 52.0936 41.6287C52.9428 41.8216 53.6877 42.3027 54.3283 43.0718C55.4221 44.3849 55.8313 45.7281 55.5559 47.1013C55.2805 48.4746 54.3726 49.8133 52.8323 51.1175L47.5235 55.5395ZM45.3842 47.2491L48.4545 50.9352L50.8651 48.9274C51.5279 48.3753 51.9135 47.7893 52.022 47.1693C52.1316 46.5379 51.9546 45.9439 51.491 45.3874C50.4493 44.1368 49.2735 44.0412 47.9635 45.1006L45.3842 47.2491ZM43.7279 45.2606L45.8101 43.5262C47.2087 42.3189 47.4471 41.1619 46.5252 40.0551C46.0095 39.436 45.4584 39.1431 44.8718 39.1763C44.2862 39.1981 43.6057 39.5319 42.8303 40.1777L40.8606 41.8184L43.7279 45.2606Z"/>
<path d="M61.277 41.1622L67.8067 36.9399L69.4041 39.4103L59.7992 45.6211L50.1484 30.6961L53.2236 28.7076L61.277 41.1622Z"/>
<path d="M80.1023 28.7377L78.8002 29.2942L80.7143 33.7729L77.4703 35.1593L72.2797 23.014L75.5237 21.6276L77.4761 26.1961L78.6323 25.702L79.3289 20.0013L83.426 18.2503L81.923 25.7294L88.987 30.2374L84.6654 32.0843L80.1023 28.7377Z"/>
<path d="M87.9121 23.5278C87.5408 22.2713 87.4517 21.0798 87.6449 19.9535C87.8382 18.8271 88.3079 17.8609 89.054 17.0549C89.808 16.2465 90.7859 15.6647 91.9877 15.3095C93.6969 14.8044 95.2445 14.9155 96.6306 15.643C98.0244 16.3682 99.0491 17.6098 99.7044 19.3679L99.9839 20.2272C100.558 22.1705 100.477 23.8917 99.7406 25.3907C99.0018 26.882 97.7193 27.8975 95.8931 28.4372C94.0669 28.977 92.4345 28.823 90.9959 27.9753C89.5651 27.1252 88.5522 25.6934 87.9571 23.6799L87.9121 23.5278ZM91.3679 22.7737C91.7231 23.9756 92.2216 24.8296 92.8634 25.3357C93.5029 25.8341 94.2441 25.9587 95.0869 25.7096C95.9064 25.4674 96.4541 24.9661 96.73 24.2057C97.0036 23.4375 96.9363 22.3627 96.5281 20.9813C96.1798 19.8029 95.6797 18.9578 95.0278 18.4461C94.3759 17.9345 93.6324 17.802 92.7973 18.0488C91.9701 18.2933 91.4259 18.8063 91.1646 19.5879C90.9011 20.3616 90.9689 21.4235 91.3679 22.7737Z"/>
<path d="M112.475 11.0767L114.751 24.0872L111.276 24.695L109.492 14.4983L106.426 15.0347L106.912 19.0887C107.15 21.2529 107.002 22.8857 106.468 23.987C105.933 25.0884 104.971 25.7731 103.58 26.0412L102.402 26.2473L101.871 23.4279L102.298 23.3161C102.915 23.1586 103.307 22.7099 103.475 21.9701C103.643 21.2302 103.618 20.0242 103.4 18.3522L102.675 12.7909L112.475 11.0767Z"/>
<path d="M116.535 17.0701C116.459 15.7621 116.644 14.5816 117.088 13.5288C117.532 12.4759 118.209 11.6419 119.119 11.0267C120.037 10.411 121.122 10.067 122.373 9.99446C124.153 9.89137 125.634 10.3517 126.819 11.3754C128.011 12.3986 128.726 13.8408 128.964 15.7019L129.041 16.6023C129.158 18.6252 128.688 20.2828 127.63 21.575C126.571 22.8591 125.091 23.5563 123.19 23.6664C121.289 23.7766 119.734 23.2553 118.526 22.1025C117.326 20.9493 116.666 19.3246 116.544 17.2285L116.535 17.0701ZM120.072 17.122C120.144 18.3731 120.435 19.3181 120.945 19.957C121.455 20.5878 122.148 20.8778 123.025 20.8269C123.878 20.7775 124.526 20.4139 124.967 19.7362C125.409 19.0504 125.588 17.9884 125.504 16.5504C125.433 15.3236 125.138 14.387 124.62 13.7404C124.102 13.0938 123.408 12.7958 122.538 12.8461C121.677 12.896 121.031 13.2718 120.599 13.9734C120.166 14.6669 119.99 15.7164 120.072 17.122Z"/>
<path d="M143.062 23.7258L139.528 23.521L139.821 18.4514L135.446 18.1979L135.153 23.2675L131.631 23.0635L132.395 9.87756L135.917 10.0816L135.61 15.3706L139.985 15.6241L140.292 10.3351L143.826 10.5399L143.062 23.7258Z"/>
<path d="M151.781 20.1102L150.386 19.8663L149.547 24.664L146.072 24.0561L148.348 11.0457L151.823 11.6536L150.967 16.5475L152.205 16.7642L155.899 12.3666L160.288 13.1343L154.948 18.5823L158.409 26.2142L153.78 25.4044L151.781 20.1102Z"/>
<path d="M166.53 28.596C166.463 28.2457 166.46 27.8338 166.522 27.3602C165.435 28.0352 164.235 28.1814 162.923 27.7989C161.68 27.4369 160.754 26.7769 160.143 25.819C159.54 24.8634 159.398 23.8387 159.717 22.7449C160.108 21.4011 160.905 20.5143 162.107 20.0847C163.316 19.6574 164.864 19.7142 166.749 20.2551L168.307 20.7094L168.519 19.9828C168.69 19.3968 168.674 18.8836 168.472 18.4432C168.278 18.0051 167.856 17.6916 167.208 17.5026C166.637 17.3364 166.148 17.3422 165.74 17.52C165.34 17.7001 165.071 18.0284 164.932 18.505L161.545 17.5179C161.759 16.7835 162.184 16.1698 162.819 15.6769C163.454 15.1839 164.237 14.8823 165.168 14.7721C166.101 14.654 167.083 14.7453 168.114 15.0459C169.677 15.5013 170.8 16.2567 171.484 17.3122C172.179 18.3622 172.319 19.5982 171.904 21.0202L170.302 26.5166C169.959 27.7221 169.862 28.6812 170.01 29.3941L169.952 29.5933L166.53 28.596ZM164.416 25.4241C164.916 25.5698 165.409 25.5948 165.894 25.499C166.382 25.3953 166.783 25.1856 167.095 24.8698L167.73 22.69L166.465 22.3211C164.769 21.827 163.696 22.15 163.245 23.29L163.175 23.4859C163.052 23.9078 163.099 24.2987 163.317 24.6587C163.534 25.0187 163.9 25.2738 164.416 25.4241Z"/>
</symbol><symbol id="3" viewBox="0 0 261 276">
<path d="M36.1354 45.9528L32.3992 49.9128L43.1693 60.0743L40.6561 62.738L29.8861 52.5765L26.2001 56.4832L24.0425 54.4476L33.9778 43.9172L36.1354 45.9528Z"/>
<path d="M52.7804 51.5595C51.2967 52.8045 49.7054 53.3643 48.0066 53.2388C46.314 53.108 44.8321 52.2853 43.5609 50.7704L43.3412 50.5086C42.4885 49.4924 41.9238 48.4206 41.6469 47.2931C41.3649 46.1594 41.4018 45.0766 41.7578 44.0449C42.1147 43.0017 42.7545 42.093 43.6771 41.3188C45.0611 40.1575 46.5151 39.681 48.0392 39.8894C49.5695 40.0926 51.0068 40.9952 52.3512 42.5974L53.2772 43.7008L46.8343 49.1072C47.4761 49.6947 48.1826 50.0049 48.9538 50.0377C49.7312 50.0653 50.4565 49.7966 51.1298 49.2316C52.1709 48.358 52.6679 47.2982 52.6209 46.0522L55.1964 46.4247C55.2725 47.3383 55.1005 48.2475 54.6806 49.1523C54.2554 50.0509 53.622 50.8533 52.7804 51.5595ZM45.5039 43.5148C44.9678 43.9646 44.6831 44.5116 44.6499 45.1557C44.6229 45.7945 44.8451 46.4898 45.3166 47.2415L49.0757 44.0871L48.8952 43.872C48.3805 43.284 47.8314 42.9587 47.2476 42.8961C46.6587 42.8273 46.0775 43.0335 45.5039 43.5148Z"/>
<path d="M64.2789 34.9996C65.4085 36.6917 65.9287 38.3063 65.8395 39.8434C65.7524 41.3693 65.0558 42.5682 63.7495 43.4403C62.6395 44.1814 61.4851 44.3943 60.2864 44.0791L63.7432 49.2568L60.8091 51.2156L50.6558 36.0073L53.3767 34.1908L54.1966 35.1992C54.338 33.872 54.9805 32.8265 56.1244 32.0629C57.478 31.1591 58.8649 30.9573 60.2849 31.4575C61.7049 31.9576 63.0024 33.0876 64.1772 34.8473L64.2789 34.9996ZM61.2025 36.7452C60.5202 35.7232 59.811 35.0567 59.075 34.7457C58.3458 34.4302 57.636 34.5029 56.9456 34.9638C56.0251 35.5783 55.6273 36.3528 55.752 37.2871L58.7546 41.7846C59.5968 42.2694 60.4782 42.2045 61.3987 41.5899C62.7997 40.6546 62.7343 39.0397 61.2025 36.7452Z"/>
<path d="M74.2101 32.3474L73.2929 22.7083L77.2531 20.7478L83.1131 32.5846L79.9515 34.1498L76.3553 26.8858L77.1181 35.5526L74.9958 36.6033L68.6805 30.8352L72.2171 37.9789L69.0555 39.5441L63.1954 27.7072L67.1228 25.7629L74.2101 32.3474Z"/>
<path d="M82.6027 25.5821C82.1795 24.3421 82.0411 23.1554 82.1874 22.022C82.3337 20.8886 82.7629 19.9038 83.4749 19.0674C84.1947 18.2285 85.1476 17.6066 86.3337 17.2018C88.0204 16.6261 89.5713 16.673 90.9863 17.3423C92.4091 18.0089 93.4844 19.207 94.2122 20.9363L94.5271 21.7833C95.1816 23.7011 95.172 25.4241 94.4984 26.9525C93.8221 28.4731 92.5828 29.541 90.7806 30.1561C88.9784 30.7711 87.341 30.685 85.8685 29.8978C84.4036 29.1079 83.3321 27.7194 82.654 25.7323L82.6027 25.5821ZM86.0243 24.6852C86.4291 25.8713 86.9626 26.7039 87.6248 27.183C88.2844 27.6544 89.0301 27.7482 89.8619 27.4643C90.6706 27.1883 91.197 26.6647 91.4412 25.8934C91.6827 25.1145 91.5708 24.0434 91.1055 22.6802C90.7086 21.5172 90.1739 20.6937 89.5013 20.2095C88.8287 19.7253 88.0804 19.6239 87.2563 19.9051C86.4399 20.1837 85.9174 20.7189 85.6889 21.5106C85.4577 22.2946 85.5695 23.3528 86.0243 24.6852Z"/>
<path d="M104.23 19.7532L97.5394 21.3229L96.8898 18.5539L103.581 16.9841L104.23 19.7532Z"/>
<path d="M113.204 21.8796C113.848 21.7896 114.348 21.5392 114.701 21.1283C115.055 20.7174 115.198 20.2166 115.132 19.626L118.409 19.1687C118.524 20.0564 118.396 20.9042 118.024 21.7121C117.651 22.5119 117.078 23.1753 116.305 23.7022C115.539 24.22 114.657 24.5486 113.657 24.6881C111.787 24.9491 110.23 24.5625 108.984 23.5285C107.738 22.4863 106.968 20.9175 106.676 18.8219L106.644 18.5922C106.362 16.5772 106.674 14.8945 107.578 13.5439C108.483 12.1934 109.87 11.3876 111.74 11.1267C113.376 10.8983 114.751 11.183 115.865 11.9807C116.985 12.7692 117.662 13.9361 117.894 15.4813L114.618 15.9386C114.507 15.2638 114.221 14.745 113.759 14.3821C113.297 14.0112 112.735 13.8719 112.074 13.9641C111.26 14.0777 110.685 14.462 110.349 15.1169C110.02 15.7627 109.949 16.7505 110.134 18.0804L110.185 18.4431C110.373 19.7891 110.713 20.7276 111.207 21.2586C111.7 21.7896 112.365 21.9966 113.204 21.8796Z"/>
<path d="M125.929 18.3779L128.083 10.0827L131.865 9.95133L127.088 25.3853L126.82 26.0909C126.091 27.8425 124.819 28.7498 123.006 28.8129C122.493 28.8307 121.97 28.7715 121.436 28.6353L121.343 25.9636L121.88 25.9572C122.547 25.934 123.04 25.8151 123.358 25.6004C123.684 25.3855 123.933 25.039 124.104 24.5607L124.481 23.4606L119.397 10.3846L123.191 10.2527L125.929 18.3779Z"/>
<path d="M141.466 19.5961L145.708 10.8923L150.11 11.2837L148.94 24.4398L145.426 24.1273L146.144 16.0537L142.276 23.8472L139.918 23.6375L137.535 15.4229L136.829 23.3628L133.315 23.0503L134.485 9.89421L138.85 10.2824L141.466 19.5961Z"/>
<path d="M157.417 21.2768L156.035 20.9692L154.977 25.7234L151.533 24.9569L154.403 12.0644L157.846 12.8309L156.767 17.6805L157.994 17.9537L161.886 13.73L166.235 14.698L160.651 19.8956L163.758 27.678L159.171 26.657L157.417 21.2768Z"/>
<path d="M172.48 30.68C172.43 30.3269 172.447 29.9153 172.532 29.4452C171.413 30.0661 170.208 30.1534 168.916 29.7069C167.693 29.2844 166.799 28.5797 166.236 27.593C165.681 26.609 165.589 25.5786 165.961 24.5017C166.418 23.1787 167.258 22.3321 168.479 21.962C169.708 21.5945 171.251 21.7271 173.107 22.3599L174.642 22.8901L174.889 22.1747C175.088 21.5978 175.098 21.0845 174.917 20.6347C174.744 20.1876 174.339 19.8538 173.7 19.6332C173.139 19.4392 172.65 19.421 172.234 19.5786C171.826 19.7388 171.54 20.0536 171.378 20.5228L168.044 19.3707C168.294 18.6477 168.748 18.0556 169.407 17.5944C170.065 17.1331 170.862 16.8703 171.797 16.8059C172.735 16.7338 173.711 16.8731 174.727 17.2239C176.265 17.7554 177.35 18.565 177.981 19.6529C178.623 20.7356 178.702 21.977 178.219 23.3769L176.349 28.7881C175.948 29.9753 175.803 30.9286 175.917 31.6479L175.849 31.844L172.48 30.68ZM170.523 27.4082C171.016 27.5783 171.507 27.6274 171.996 27.5555C172.489 27.4759 172.899 27.2861 173.226 26.986L173.968 24.84L172.722 24.4094C171.053 23.8328 169.965 24.1027 169.459 25.2193L169.379 25.4114C169.236 25.8268 169.264 26.2196 169.463 26.5898C169.662 26.96 170.016 27.2328 170.523 27.4082Z"/>
</symbol><symbol id="4" viewBox="0 0 474 503">
<path d="M159.924 177.554C161.652 178.386 162.792 179.598 163.344 181.19C163.898 182.775 163.793 184.536 163.027 186.473C162.189 188.592 160.818 189.98 158.913 190.636C157.004 191.281 154.805 191.111 152.315 190.127L151.305 189.727C149.715 189.099 148.426 188.265 147.436 187.227C146.447 186.188 145.836 185.023 145.602 183.732C145.364 182.43 145.518 181.09 146.062 179.713C146.816 177.806 147.935 176.472 149.417 175.71C150.9 174.949 152.6 174.842 154.518 175.391L153.172 178.796C152.072 178.458 151.182 178.451 150.502 178.777C149.817 179.093 149.268 179.773 148.855 180.817C148.406 181.952 148.478 182.965 149.071 183.856C149.659 184.736 150.806 185.522 152.51 186.214L153.759 186.707C155.545 187.413 156.956 187.661 157.994 187.45C159.034 187.231 159.785 186.539 160.246 185.374C160.662 184.322 160.733 183.444 160.46 182.741C160.182 182.027 159.554 181.434 158.578 180.96L159.924 177.554Z"/>
<path d="M169.363 172.776C168.462 174.49 167.201 175.611 165.581 176.138C163.965 176.658 162.282 176.458 160.532 175.538L160.229 175.379C159.055 174.761 158.127 173.983 157.443 173.044C156.753 172.102 156.377 171.086 156.316 169.996C156.251 168.896 156.499 167.812 157.06 166.746C157.901 165.147 159.066 164.156 160.555 163.771C162.048 163.38 163.721 163.671 165.572 164.644L166.847 165.315L162.931 172.759C163.748 173.059 164.519 173.079 165.245 172.817C165.975 172.548 166.545 172.025 166.954 171.247C167.587 170.044 167.645 168.875 167.13 167.739L169.654 167.109C170.071 167.926 170.256 168.832 170.21 169.829C170.157 170.821 169.875 171.804 169.363 172.776ZM159.582 168.087C159.256 168.706 159.2 169.32 159.413 169.929C159.63 170.53 160.099 171.09 160.82 171.607L163.104 167.264L162.856 167.133C162.157 166.784 161.525 166.691 160.961 166.854C160.39 167.013 159.93 167.424 159.582 168.087Z"/>
<path d="M173.693 152.908C175.391 154.029 176.497 155.315 177.011 156.766C177.524 158.206 177.347 159.582 176.482 160.892C175.747 162.006 174.765 162.651 173.538 162.826L178.734 166.255L176.791 169.199L161.529 159.126L163.332 156.396L164.479 157.007C164.094 155.729 164.28 154.516 165.038 153.368C165.934 152.009 167.134 151.285 168.637 151.195C170.14 151.104 171.774 151.642 173.54 152.807L173.693 152.908ZM171.535 155.711C170.51 155.034 169.597 154.696 168.798 154.695C168.004 154.687 167.378 155.03 166.921 155.722C166.311 156.646 166.245 157.514 166.723 158.327L171.236 161.306C172.2 161.426 172.987 161.024 173.597 160.1C174.525 158.694 173.838 157.231 171.535 155.711Z"/>
<path d="M178.903 140.131L176.245 143.429L184.325 149.939L182.104 152.696L174.024 146.186L171.413 149.427L169.207 147.65L176.698 138.354L178.903 140.131Z"/>
<path d="M184.444 130.234L186.916 127.717L196.34 136.972L193.868 139.489L188.05 133.775L190.771 142.642L188.291 145.168L178.867 135.912L181.348 133.387L187.157 139.092L184.444 130.234Z"/>
<path d="M193.531 130.54C192.199 128.886 191.476 127.3 191.361 125.783C191.253 124.261 191.792 123.022 192.977 122.068C193.44 121.695 193.936 121.448 194.464 121.325L190.919 116.923L193.666 114.711L197.219 119.122C197.459 118.615 197.817 118.171 198.292 117.788C199.483 116.828 200.808 116.566 202.266 117.001C203.725 117.424 205.177 118.533 206.622 120.327C207.872 121.879 208.526 123.385 208.583 124.844C208.635 126.297 208.074 127.495 206.902 128.439C206.414 128.833 205.902 129.099 205.366 129.238L208.612 133.269L205.865 135.481L202.626 131.46C202.383 131.937 202.024 132.367 201.549 132.75C200.44 133.643 199.215 133.945 197.875 133.656C196.534 133.367 195.25 132.525 194.023 131.131L193.531 130.54ZM203.704 122.347C202.877 121.321 202.089 120.66 201.339 120.365C200.584 120.063 199.925 120.14 199.361 120.594C199.184 120.737 199.008 120.915 198.835 121.128L203.758 127.241C203.966 127.136 204.181 126.994 204.403 126.816C205.48 125.948 205.405 124.661 204.177 122.954L203.704 122.347ZM196.439 128.527C197.966 130.422 199.309 130.903 200.469 129.968C200.709 129.774 200.89 129.603 201.01 129.454L196.087 123.341C195.842 123.465 195.637 123.593 195.473 123.726C194.908 124.18 194.691 124.799 194.821 125.583C194.945 126.36 195.485 127.342 196.439 128.527Z"/>
<path d="M214.981 122.452L212.04 124.423L204.689 113.45L207.63 111.479L214.981 122.452ZM202.614 110.725C202.32 110.286 202.223 109.827 202.323 109.348C202.431 108.865 202.738 108.453 203.245 108.114C203.745 107.778 204.239 107.653 204.727 107.738C205.215 107.823 205.606 108.085 205.9 108.524C206.199 108.97 206.291 109.437 206.177 109.925C206.07 110.408 205.77 110.815 205.276 111.146C204.783 111.477 204.289 111.602 203.794 111.522C203.306 111.437 202.913 111.172 202.614 110.725Z"/>
<path d="M219.728 113.849L218.494 114.544L220.884 118.788L217.811 120.519L211.329 109.011L214.403 107.28L216.841 111.608L217.936 110.991L218.008 105.249L221.89 103.062L221.21 110.66L228.723 114.373L224.628 116.679L219.728 113.849Z"/>
<path d="M236.734 110.873C236.458 110.647 236.191 110.333 235.935 109.93C235.534 111.145 234.707 112.026 233.455 112.575C232.27 113.093 231.135 113.181 230.052 112.838C228.977 112.492 228.211 111.796 227.754 110.753C227.193 109.47 227.235 108.279 227.882 107.179C228.536 106.075 229.759 105.127 231.553 104.333L233.04 103.682L232.737 102.988C232.492 102.429 232.151 102.045 231.713 101.837C231.283 101.626 230.759 101.656 230.14 101.926C229.596 102.165 229.224 102.483 229.025 102.881C228.834 103.275 228.837 103.7 229.037 104.155L225.805 105.57C225.498 104.869 225.43 104.126 225.602 103.34C225.773 102.554 226.18 101.821 226.824 101.139C227.464 100.45 228.276 99.8906 229.26 99.4599C230.751 98.8072 232.097 98.6664 233.299 99.0376C234.505 99.398 235.405 100.257 235.999 101.613L238.295 106.858C238.805 108.003 239.345 108.801 239.916 109.253L240 109.443L236.734 110.873ZM233.078 109.795C233.555 109.586 233.949 109.289 234.26 108.904C234.568 108.512 234.741 108.094 234.778 107.651L233.867 105.571L232.66 106.1C231.042 106.808 230.426 107.744 230.811 108.908L230.883 109.103C231.059 109.506 231.346 109.776 231.743 109.913C232.141 110.049 232.586 110.01 233.078 109.795Z"/>
<path d="M248.776 95.548L244.753 96.8749L248.003 106.729L244.641 107.838L241.391 97.9838L237.438 99.2877L236.551 96.5982L247.889 92.8585L248.776 95.548Z"/>
<path d="M258.697 96.7945C258.355 94.7973 258.552 93.1079 259.289 91.7263C260.035 90.3434 261.213 89.5137 262.825 89.237C264.253 88.9921 265.448 89.2908 266.41 90.1331L266.344 88.8811L269.496 88.3403L271.655 100.925C271.851 102.064 271.76 103.099 271.383 104.031C271.014 104.961 270.398 105.727 269.536 106.329C268.673 106.932 267.612 107.341 266.353 107.557C265.398 107.721 264.435 107.688 263.462 107.458C262.491 107.237 261.722 106.865 261.153 106.343L262.33 103.962C263.363 104.784 264.497 105.089 265.732 104.877C266.654 104.718 267.329 104.347 267.757 103.761C268.187 103.184 268.324 102.442 268.168 101.536L268.048 100.838C267.402 101.882 266.425 102.516 265.117 102.74C263.553 103.009 262.182 102.616 261.002 101.564C259.829 100.502 259.069 98.9601 258.722 96.9388L258.697 96.7945ZM262.218 96.4505C262.42 97.6296 262.816 98.5154 263.404 99.108C263.992 99.6925 264.699 99.9139 265.525 99.7721C266.583 99.5905 267.273 99.0634 267.594 98.1909L266.655 92.7167C266.054 92.0025 265.236 91.7341 264.201 91.9116C263.367 92.0547 262.767 92.5085 262.403 93.2728C262.047 94.0358 261.985 95.095 262.218 96.4505Z"/>
<path d="M277.165 100.885L273.642 101.226L272.366 88.0802L275.89 87.7383L277.165 100.885ZM271.83 84.6982C271.779 84.1717 271.911 83.7215 272.226 83.3475C272.549 82.9727 273.015 82.7559 273.622 82.6969C274.222 82.6387 274.716 82.7625 275.105 83.0681C275.495 83.3737 275.715 83.7898 275.766 84.3163C275.818 84.8509 275.678 85.3059 275.347 85.6815C275.023 86.0563 274.566 86.2724 273.975 86.3298C273.383 86.3871 272.889 86.2634 272.492 85.9586C272.102 85.653 271.881 85.2328 271.83 84.6982Z"/>
<path d="M281.592 100.555L281.181 89.9433L279.217 90.0194L279.117 87.4334L281.081 87.3573L281.038 86.2351C280.98 84.7551 281.359 83.5921 282.173 82.7462C282.995 81.8918 284.17 81.435 285.699 81.3757C286.187 81.3568 286.788 81.415 287.502 81.5502L287.571 84.284C287.275 84.2221 286.916 84.1994 286.493 84.2158C285.168 84.2671 284.529 84.9149 284.577 86.1591L284.618 87.2203L287.241 87.1187L287.341 89.7046L284.719 89.8062L285.13 100.418L281.592 100.555Z"/>
<path d="M294.727 84.0025L294.639 87.2484L296.896 87.3096L296.826 89.8966L294.569 89.8354L294.39 96.4247C294.377 96.9128 294.461 97.2652 294.642 97.4818C294.824 97.6983 295.179 97.8138 295.707 97.8281C296.098 97.8387 296.444 97.8196 296.747 97.7709L296.674 100.443C295.977 100.636 295.263 100.722 294.53 100.703C292.057 100.636 290.83 99.3526 290.849 96.8538L291.042 89.7397L289.114 89.6874L289.184 87.1005L291.112 87.1528L291.2 83.9069L294.727 84.0025Z"/>
<path d="M309.947 88.455L309.788 89.9276C310.916 88.9679 312.264 88.6319 313.833 88.9197C315.506 89.2266 316.533 90.0977 316.916 91.533C318.07 90.3797 319.492 89.9579 321.181 90.2678C322.59 90.5262 323.563 91.1308 324.1 92.0815C324.639 93.0243 324.757 94.3201 324.454 95.969L322.932 104.266L319.45 103.627L320.97 95.3423C321.105 94.6058 321.059 94.0431 320.833 93.6541C320.608 93.257 320.131 92.9917 319.403 92.858C318.362 92.6671 317.551 93.0313 316.968 93.9504L315.344 102.874L311.874 102.237L313.392 93.9644C313.53 93.212 313.481 92.6405 313.247 92.25C313.012 91.8594 312.539 91.5988 311.827 91.4681C310.842 91.2875 310.055 91.5651 309.465 92.3007L307.78 101.486L304.31 100.849L306.693 87.8581L309.947 88.455Z"/>
<path d="M332.268 107.331C332.209 106.979 332.216 106.567 332.289 106.095C331.186 106.744 329.984 106.862 328.68 106.449C327.447 106.057 326.536 105.375 325.948 104.403C325.368 103.434 325.25 102.406 325.595 101.32C326.018 99.9859 326.836 99.1183 328.047 98.7172C329.266 98.3186 330.812 98.4121 332.684 98.9975L334.231 99.4885L334.46 98.7671C334.645 98.1854 334.641 97.672 334.45 97.2269C334.266 96.7843 333.852 96.4609 333.208 96.2566C332.642 96.0769 332.153 96.0711 331.741 96.2392C331.336 96.4098 331.059 96.7317 330.909 97.2049L327.547 96.1379C327.778 95.4087 328.217 94.8053 328.864 94.3275C329.511 93.8497 330.3 93.5667 331.233 93.4785C332.169 93.3826 333.149 93.4971 334.173 93.822C335.724 94.3143 336.829 95.0961 337.488 96.1676C338.157 97.2337 338.268 98.4726 337.82 99.8844L336.088 105.341C335.717 106.538 335.597 107.495 335.728 108.211L335.666 108.409L332.268 107.331ZM330.229 104.11C330.726 104.267 331.218 104.304 331.706 104.22C332.196 104.128 332.601 103.927 332.921 103.619L333.608 101.455L332.351 101.056C330.668 100.522 329.587 100.82 329.109 101.949L329.035 102.143C328.902 102.562 328.94 102.954 329.148 103.319C329.357 103.684 329.717 103.947 330.229 104.11Z"/>
<path d="M340.572 110.428L337.283 109.119L344.218 91.6989L347.507 93.0083L340.572 110.428Z"/>
<path d="M346.567 113.057L343.346 111.589L351.12 94.5269L354.342 95.9947L346.567 113.057Z"/>
<path d="M365.014 123.393L362.002 121.532L364.672 117.212L360.944 114.908L358.274 119.228L355.273 117.374L362.216 106.138L365.217 107.992L362.432 112.499L366.16 114.803L368.945 110.296L371.957 112.157L365.014 123.393Z"/>
<path d="M373.012 129.34C373.075 128.989 373.221 128.604 373.45 128.185C372.193 128.422 371.021 128.126 369.934 127.296C368.906 126.511 368.28 125.561 368.056 124.447C367.838 123.338 368.075 122.331 368.766 121.426C369.616 120.314 370.679 119.774 371.955 119.807C373.237 119.844 374.66 120.455 376.223 121.639L377.513 122.625L377.973 122.024C378.343 121.539 378.514 121.054 378.484 120.571C378.46 120.092 378.18 119.648 377.644 119.237C377.172 118.877 376.713 118.706 376.269 118.725C375.831 118.748 375.461 118.957 375.16 119.352L372.356 117.21C372.821 116.602 373.438 116.183 374.209 115.952C374.979 115.721 375.818 115.722 376.726 115.955C377.638 116.181 378.522 116.621 379.375 117.273C380.668 118.261 381.444 119.371 381.701 120.602C381.97 121.832 381.655 123.035 380.756 124.212L377.28 128.761C376.526 129.762 376.089 130.621 375.97 131.34L375.844 131.505L373.012 129.34ZM372.183 125.619C372.597 125.936 373.048 126.137 373.536 126.222C374.028 126.302 374.477 126.25 374.882 126.068L376.261 124.264L375.213 123.464C373.81 122.392 372.692 122.306 371.861 123.207L371.725 123.364C371.458 123.713 371.361 124.095 371.434 124.509C371.507 124.923 371.757 125.293 372.183 125.619Z"/>
<path d="M390.927 146.069L382.454 137.316L384.191 135.635L392.593 135.504C393.762 135.471 394.707 135.365 395.429 135.187C396.157 135.015 396.729 134.728 397.144 134.326C397.711 133.777 398.017 133.204 398.061 132.606C398.111 132.002 397.879 131.434 397.364 130.902C396.809 130.329 396.172 130.069 395.451 130.12C394.743 130.172 394.067 130.509 393.423 131.132L390.961 128.588C391.739 127.835 392.628 127.332 393.628 127.078C394.633 126.829 395.645 126.869 396.664 127.196C397.689 127.518 398.618 128.108 399.45 128.968C400.723 130.284 401.395 131.61 401.466 132.946C401.542 134.288 401.004 135.517 399.852 136.632C399.22 137.243 398.419 137.702 397.447 138.009C396.475 138.315 395.168 138.492 393.527 138.54L387.656 138.6L392.971 144.091L390.927 146.069Z"/>
<path d="M405.237 152.194C403.307 153.715 401.515 154.479 399.863 154.486C398.21 154.493 396.777 153.726 395.564 152.186C394.365 150.664 393.95 149.106 394.319 147.509C394.688 145.913 395.801 144.368 397.659 142.873L400.229 140.848C402.178 139.312 403.975 138.549 405.62 138.558C407.27 138.574 408.694 139.343 409.893 140.864C411.091 142.386 411.506 143.944 411.137 145.541C410.775 147.132 409.664 148.675 407.807 150.17L405.237 152.194ZM405.873 147.202C407.03 146.291 407.744 145.468 408.017 144.736C408.3 144.005 408.178 143.303 407.649 142.632C407.135 141.98 406.502 141.696 405.751 141.781C405.01 141.867 404.099 142.321 403.016 143.143L399.622 145.818C398.484 146.714 397.758 147.535 397.444 148.28C397.141 149.026 397.259 149.741 397.798 150.425C398.332 151.103 398.982 151.383 399.749 151.265C400.517 151.148 401.452 150.665 402.555 149.816L405.873 147.202Z"/>
<path d="M413.682 165.234C411.601 166.543 409.739 167.113 408.095 166.945C406.451 166.777 405.108 165.863 404.063 164.203C403.032 162.564 402.784 160.97 403.32 159.421C403.856 157.873 405.126 156.454 407.132 155.164L409.901 153.422C412.002 152.101 413.87 151.532 415.504 151.715C417.143 151.905 418.478 152.82 419.509 154.46C420.54 156.099 420.788 157.693 420.252 159.242C419.723 160.785 418.456 162.202 416.451 163.493L413.682 165.234ZM414.841 160.337C416.088 159.553 416.886 158.811 417.234 158.111C417.593 157.414 417.546 156.704 417.091 155.981C416.649 155.278 416.05 154.929 415.293 154.934C414.548 154.941 413.593 155.296 412.43 155.999L408.772 158.3C407.546 159.071 406.737 159.81 406.346 160.518C405.966 161.228 406.007 161.952 406.471 162.689C406.93 163.419 407.548 163.766 408.323 163.73C409.098 163.695 410.079 163.313 411.266 162.586L414.841 160.337Z"/>
<path d="M424.581 180.758L422.326 175.776L412.895 180.043L411.441 176.829L423.474 171.384L427.183 179.58L424.581 180.758Z"/>
<path d="M425.729 195.385C423.808 196.054 422.115 196.153 420.649 195.682C419.194 195.215 418.208 194.24 417.691 192.757C417.252 191.497 417.335 190.326 417.94 189.244L412.061 191.293L410.9 187.962L428.168 181.944L429.245 185.033L428.063 185.574C429.312 186.044 430.163 186.928 430.616 188.227C431.152 189.764 430.999 191.157 430.159 192.406C429.319 193.655 427.9 194.628 425.902 195.325L425.729 195.385ZM424.81 191.969C425.971 191.565 426.794 191.045 427.279 190.411C427.768 189.784 427.875 189.078 427.602 188.295C427.238 187.249 426.588 186.67 425.652 186.557L420.545 188.336C419.865 189.03 419.707 189.9 420.071 190.945C420.626 192.536 422.205 192.877 424.81 191.969Z"/>
<path d="M422.9 211.086L422.094 207.639L427.039 206.483L426.041 202.216L421.096 203.372L420.293 199.937L433.154 196.93L433.957 200.365L428.799 201.571L429.796 205.838L434.955 204.632L435.761 208.079L422.9 211.086Z"/>
</symbol><symbol id="arrow" viewBox="0 0 52 51">
<path d="M3 25.5L26 48.5L49 25.5" stroke="white" stroke-width="5" stroke-linecap="round" stroke-linejoin="round"/>
<path d="M3 3L26 26L49 3" stroke="white" stroke-width="5" stroke-linecap="round" stroke-linejoin="round"/>
</symbol><symbol id="close" viewBox="0 0 43 43">
<path d="M38.6378 5.06564L5.04211 38.6614" stroke="white" stroke-width="6" stroke-linecap="round" stroke-linejoin="round"/>
<path d="M5 5L38.5957 38.5957" stroke="white" stroke-width="6" stroke-linecap="round" stroke-linejoin="round"/>
</symbol><symbol id="telegram" viewBox="0 0 48 48">
<path d="M24 48C37.2548 48 48 37.2548 48 24C48 10.7452 37.2548 0 24 0C10.7452 0 0 10.7452 0 24C0 37.2548 10.7452 48 24 48Z" fill="#37AEE2"/>
<path d="M8.93822 25.174C11.7438 23.6286 14.8756 22.3388 17.8018 21.0424C22.836 18.919 27.8902 16.8324 32.9954 14.8898C33.9887 14.5588 35.7734 14.2351 35.9484 15.7071C35.8526 17.7907 35.4584 19.8621 35.188 21.9335C34.5017 26.4887 33.7085 31.0283 32.935 35.5685C32.6685 37.0808 30.774 37.8637 29.5618 36.8959C26.6486 34.9281 23.713 32.9795 20.837 30.9661C19.8949 30.0088 20.7685 28.6341 21.6099 27.9505C24.0093 25.5859 26.5539 23.5769 28.8279 21.0901C29.4413 19.6088 27.6289 20.8572 27.0311 21.2397C23.7463 23.5033 20.5419 25.9051 17.0787 27.8945C15.3097 28.8683 13.2479 28.0361 11.4797 27.4927C9.89428 26.8363 7.57106 26.175 8.93806 25.1741L8.93822 25.174Z" fill="white"/>
</symbol><symbol id="viber" viewBox="0 0 79 87">
<path fill-rule="evenodd" clip-rule="evenodd" d="M78.1705 40.5959C78.1705 14.9909 69.1508 3.24585 39.0853 3.24585C9.01967 3.24585 0 14.9909 0 40.5959C0 58.8181 4.56821 70.0207 18.0393 74.9659V83.5868C18.0393 86.76 22.0209 88.2095 24.0833 85.7871L31.0347 77.6225C33.5332 77.8387 36.2132 77.9459 39.0853 77.9459C69.1508 77.9459 78.1705 66.2008 78.1705 40.5959ZM32.6955 71.7331C34.6886 71.8914 36.8161 71.9699 39.0853 71.9699C64.5254 71.9699 72.1574 62.104 72.1574 40.5959C72.1574 19.0877 64.5254 9.22185 39.0853 9.22185C13.6451 9.22185 6.01312 19.0877 6.01312 40.5959C6.01312 55.7985 9.82618 65.1846 21.0459 69.3813V82.1531C21.0459 83.2665 22.4429 83.775 23.1666 82.9251L32.6955 71.7331Z" fill="#BFC8D0"/>
<path d="M39.0853 69.8437C36.7866 69.8437 34.6315 69.7639 32.6125 69.603L22.9599 80.9836C22.2268 81.8479 20.8116 81.3308 20.8116 80.1986V67.2115C9.4462 62.944 5.58362 53.3997 5.58362 37.9407C5.58362 16.0699 13.3148 6.03766 39.0853 6.03766C64.8558 6.03766 72.5869 16.0699 72.5869 37.9407C72.5869 59.8115 64.8558 69.8437 39.0853 69.8437Z" fill="#9179EE"/>
<path fill-rule="evenodd" clip-rule="evenodd" d="M78.1711 37.8041C78.1711 12.1992 69.1514 0.454102 39.0858 0.454102C9.02022 0.454102 0.000549316 12.1992 0.000549316 37.8041C0.000549316 56.0263 4.56876 67.2289 18.0399 72.1741V80.7951C18.0399 83.9683 22.0214 85.4177 24.0839 82.9954L31.0353 74.8308C33.5337 75.047 36.2137 75.1541 39.0858 75.1541C69.1514 75.1541 78.1711 63.409 78.1711 37.8041ZM32.6961 68.9414C34.6891 69.0996 36.8166 69.1781 39.0858 69.1781C64.5259 69.1781 72.1579 59.3122 72.1579 37.8041C72.1579 16.296 64.5259 6.4301 39.0858 6.4301C13.6457 6.4301 6.01366 16.296 6.01366 37.8041C6.01366 53.0068 9.82673 62.3928 21.0465 66.5896V79.3613C21.0465 80.4747 22.4435 80.9833 23.1671 80.1333L32.6961 68.9414Z" fill="white"/>
<path d="M39.9855 14.413C39.1399 14.413 38.4545 15.0582 38.4545 15.854C38.4545 16.6498 39.1399 17.2949 39.9855 17.2949C50.132 17.2949 58.3574 25.0364 58.3574 34.5861C58.3574 35.3819 59.0428 36.027 59.8883 36.027C60.7339 36.027 61.4193 35.3819 61.4193 34.5861C61.4193 23.4448 51.8231 14.413 39.9855 14.413Z" fill="white"/>
<path d="M20.3875 19.114C21.2553 18.6942 22.7838 18.4814 23.6599 19.2496C24.7549 20.2098 26.4427 21.893 27.6022 23.3616C28.7616 24.8301 30.3849 27.0669 30.6168 27.5639C30.8487 28.061 31.1064 29.8233 29.9469 30.8852C29.0193 31.7347 27.8083 32.4893 27.3187 32.7605C26.8635 33.137 26.118 34.2426 26.7776 35.6524C27.6022 37.4147 29.38 40.8715 32.4463 43.4472C35.5125 46.0228 38.7591 47.3784 40.7946 47.8077C40.9241 47.8077 41.0904 47.8368 41.2831 47.8705C41.9727 47.9912 43.0005 48.171 43.8866 47.2881C44.7936 46.3843 45.6216 45.4354 45.9222 45.0739C46.3946 44.5919 47.7671 43.7725 49.478 44.3509C51.6166 45.0739 54.0644 46.6555 55.1724 47.401C56.0588 47.9975 58.0325 49.4119 58.9085 50.0445C59.4411 50.4286 60.3309 51.5718 59.63 53.072C58.7539 54.9473 55.0178 59.0819 51.6681 59.0819C50.4314 59.0819 38.4756 55.8962 27.9113 46.904C21.1632 41.1601 15.3544 31.194 14.3581 27.8351C13.9802 27.0368 13.5336 25.0696 14.7704 23.5875C16.0072 22.1054 17.3986 20.56 20.3875 19.114Z" fill="white"/>
<path d="M39.9855 25.9405C39.1399 25.9405 38.4545 26.5856 38.4545 27.3814C38.4545 28.1772 39.1399 28.8223 39.9855 28.8223C43.3677 28.8223 46.1094 31.4028 46.1094 34.5861C46.1094 35.3819 46.7949 36.027 47.6404 36.027C48.486 36.027 49.1714 35.3819 49.1714 34.5861C49.1714 29.8112 45.0587 25.9405 39.9855 25.9405Z" fill="white"/>
<path d="M38.4545 21.6177C38.4545 20.8219 39.1399 20.1767 39.9855 20.1767C48.4409 20.1767 55.2954 26.628 55.2954 34.5861C55.2954 35.3819 54.6099 36.027 53.7644 36.027C52.9188 36.027 52.2334 35.3819 52.2334 34.5861C52.2334 28.2196 46.7498 23.0586 39.9855 23.0586C39.1399 23.0586 38.4545 22.4135 38.4545 21.6177Z" fill="white"/>
</symbol></svg>